<svg width="509" height="379" viewBox="0 0 509 379" fill="none" xmlns="http://www.w3.org/2000/svg">
<path d="M509 333.065H0V333.32H509V333.065Z" fill="#EBEBEB"/>
<path d="M457.998 349.431H424.282V349.685H457.998V349.431Z" fill="#EBEBEB"/>
<path d="M337.182 352.197H328.336V352.452H337.182V352.197Z" fill="#EBEBEB"/>
<path d="M423.264 339.992H403.729V340.247H423.264V339.992Z" fill="#EBEBEB"/>
<path d="M97.3717 341.7H53.4043V341.955H97.3717V341.7Z" fill="#EBEBEB"/>
<path d="M112.886 341.7H106.442V341.955H112.886V341.7Z" fill="#EBEBEB"/>
<path d="M229.203 345.993H133.836V346.248H229.203V345.993Z" fill="#EBEBEB"/>
<path d="M241.266 287.7H44.7003C43.1604 287.698 41.6845 287.084 40.5966 285.996C39.5087 284.907 38.8977 283.431 38.8977 281.892V5.80791C38.8977 4.26932 39.5087 2.79359 40.5966 1.70469C41.6845 0.615787 43.1604 0.00269456 44.7003 0L241.266 0C242.808 0 244.286 0.611903 245.376 1.7011C246.466 2.79029 247.079 4.26756 247.079 5.80791V281.892C247.079 282.655 246.928 283.41 246.636 284.115C246.344 284.82 245.916 285.46 245.376 285.999C244.836 286.539 244.196 286.966 243.49 287.258C242.785 287.55 242.029 287.7 241.266 287.7ZM44.7003 0.254287C43.2279 0.256981 41.8168 0.843283 40.7766 1.8845C39.7364 2.92571 39.1522 4.33676 39.1522 5.80791V281.892C39.1522 283.364 39.7364 284.775 40.7766 285.816C41.8168 286.857 43.2279 287.443 44.7003 287.446H241.266C242.739 287.443 244.151 286.857 245.193 285.816C246.235 284.775 246.822 283.364 246.824 281.892V5.80791C246.822 4.33583 246.235 2.9248 245.193 1.88388C244.151 0.842952 242.739 0.256976 241.266 0.254287H44.7003Z" fill="#EBEBEB"/>
<path d="M461.47 287.7H264.894C263.353 287.698 261.876 287.085 260.787 285.996C259.697 284.908 259.084 283.432 259.081 281.892V5.80791C259.084 4.26839 259.697 2.79268 260.787 1.70407C261.876 0.615456 263.353 0.00268914 264.894 0L461.47 0C463.008 0.00538296 464.481 0.619662 465.567 1.70827C466.652 2.79689 467.262 4.27108 467.262 5.80791V281.892C467.262 283.429 466.652 284.903 465.567 285.992C464.481 287.081 463.008 287.695 461.47 287.7ZM264.894 0.254287C263.421 0.256976 262.008 0.842952 260.967 1.88388C259.925 2.9248 259.338 4.33583 259.336 5.80791V281.892C259.338 283.364 259.925 284.775 260.967 285.816C262.008 286.857 263.421 287.443 264.894 287.446H461.47C462.943 287.443 464.355 286.857 465.397 285.816C466.439 284.775 467.025 283.364 467.028 281.892V5.80791C467.025 4.33583 466.439 2.9248 465.397 1.88388C464.355 0.842952 462.943 0.256976 461.47 0.254287H264.894Z" fill="#EBEBEB"/>
<path d="M294.904 121.152L435.164 121.152V29.3751L294.904 29.3751V121.152Z" fill="#E6E6E6"/>
<path d="M290.619 121.152L433.159 121.152V29.3751L290.619 29.3751V121.152Z" fill="#F0F0F0"/>
<path d="M294.904 139.156L435.164 139.156V121.143L294.904 121.143V139.156Z" fill="#E6E6E6"/>
<path d="M283.503 139.156L426.043 139.156V121.143L283.503 121.143V139.156Z" fill="#F0F0F0"/>
<path d="M427.173 115.172V35.3662L296.615 35.3662V115.172L427.173 115.172Z" fill="#FAFAFA"/>
<path d="M397.733 115.161L381.058 35.3662H355.038L371.713 115.161H397.733Z" fill="white"/>
<path d="M424.404 109.202C424.518 109.202 424.627 109.157 424.707 109.077C424.787 108.996 424.832 108.888 424.832 108.774V39.2524C424.832 39.1963 424.821 39.1407 424.799 39.0889C424.778 39.0371 424.746 38.99 424.707 38.9503C424.667 38.9107 424.62 38.8792 424.568 38.8577C424.516 38.8362 424.46 38.8252 424.404 38.8252C424.348 38.8252 424.293 38.8362 424.241 38.8577C424.189 38.8792 424.142 38.9107 424.102 38.9503C424.062 38.99 424.031 39.0371 424.009 39.0889C423.988 39.1407 423.977 39.1963 423.977 39.2524V108.774C423.977 108.831 423.988 108.886 424.009 108.938C424.031 108.99 424.062 109.037 424.102 109.077C424.142 109.116 424.189 109.148 424.241 109.169C424.293 109.191 424.348 109.202 424.404 109.202Z" fill="#F0F0F0"/>
<path d="M366.124 115.161L349.449 35.3662H339.299L355.984 115.161H366.124Z" fill="white"/>
<path d="M297.378 115.172V35.3662H296.615V115.172H297.378Z" fill="#E6E6E6"/>
<path opacity="0.6" d="M289.214 44.3886H429.474L430.024 37.6855H289.764L289.214 44.3886Z" fill="#EBEBEB"/>
<path opacity="0.6" d="M289.214 55.3739H429.474L430.024 48.6709H289.764L289.214 55.3739Z" fill="#EBEBEB"/>
<path opacity="0.6" d="M289.214 66.3588H429.474L430.024 59.666H289.764L289.214 66.3588Z" fill="#EBEBEB"/>
<path opacity="0.6" d="M289.214 77.3544H429.474L430.024 70.6514H289.764L289.214 77.3544Z" fill="#EBEBEB"/>
<path opacity="0.6" d="M289.214 88.3387H429.474L430.024 81.6357H289.764L289.214 88.3387Z" fill="#EBEBEB"/>
<path opacity="0.6" d="M289.214 99.3251H429.474L430.024 92.6221H289.764L289.214 99.3251Z" fill="#EBEBEB"/>
<path d="M415.028 266.32H385.618V272.118H415.028V266.32Z" fill="#E6E6E6"/>
<path d="M330.148 333.065H335.573V199.748H330.148V333.065Z" fill="#E6E6E6"/>
<path d="M311.335 272.107H385.608V266.31H311.335V272.107Z" fill="#F5F5F5"/>
<path d="M415.028 298.024H385.618V303.822H415.028V298.024Z" fill="#E6E6E6"/>
<path d="M311.335 303.812H385.608V298.014H311.335V303.812Z" fill="#F5F5F5"/>
<path d="M415.028 202.921H385.618V208.719H415.028V202.921Z" fill="#E6E6E6"/>
<path d="M311.335 208.708H385.608V202.91H311.335V208.708Z" fill="#F5F5F5"/>
<path d="M415.028 234.615H385.618V240.413H415.028V234.615Z" fill="#E6E6E6"/>
<path d="M311.335 240.413H385.608V234.615H311.335V240.413Z" fill="#F5F5F5"/>
<path d="M404.431 333.065H409.857V199.748H404.431V333.065Z" fill="#E6E6E6"/>
<path d="M380.182 333.065H385.608V199.748H380.182V333.065Z" fill="#F5F5F5"/>
<path d="M311.335 333.065H316.761V199.748H311.335V333.065Z" fill="#F5F5F5"/>
<path d="M66.5567 333.065H122.119L122.119 225.36H66.5567L66.5567 333.065Z" fill="#E6E6E6"/>
<path d="M81.3891 333.066H66.5466V318.195H96.9441L81.3891 333.066Z" fill="#FAFAFA"/>
<path d="M218.035 333.065H273.598V225.36H218.035V333.065Z" fill="#E6E6E6"/>
<path d="M66.5568 327.949H230.994V225.36H66.5568V327.949Z" fill="#FAFAFA"/>
<path d="M216.152 333.066H230.984V318.195H200.597L216.152 333.066Z" fill="#FAFAFA"/>
<path d="M78.0601 289.257H219.481V263.584H78.0601V289.257Z" fill="#F0F0F0"/>
<path d="M78.0601 320.422H219.481V294.749H78.0601V320.422Z" fill="#F0F0F0"/>
<path d="M192.606 266.279H104.946C103.709 266.279 102.523 265.788 101.649 264.915C100.774 264.041 100.283 262.856 100.283 261.621V261.305H197.258V261.621C197.258 262.855 196.768 264.038 195.896 264.911C195.024 265.785 193.84 266.277 192.606 266.279Z" fill="#FAFAFA"/>
<path d="M78.0601 258.102H219.481V232.429L78.0601 232.429V258.102Z" fill="#F0F0F0"/>
<path d="M192.606 235.165H104.946C103.709 235.165 102.523 234.674 101.649 233.801C100.774 232.927 100.283 231.742 100.283 230.507V230.191H197.258V230.507C197.258 231.74 196.768 232.924 195.896 233.797C195.024 234.67 193.84 235.162 192.606 235.165Z" fill="#FAFAFA"/>
<path d="M192.606 297.485H104.946C103.709 297.485 102.523 296.995 101.649 296.121C100.774 295.247 100.283 294.062 100.283 292.827V292.511H197.258V292.827C197.258 294.061 196.768 295.244 195.896 296.117C195.024 296.991 193.84 297.483 192.606 297.485Z" fill="#FAFAFA"/>
<path d="M75.4033 121.152L215.663 121.152V29.3751L75.4033 29.3751V121.152Z" fill="#E6E6E6"/>
<path d="M71.1276 121.152L213.668 121.152V29.3751L71.1276 29.3751V121.152Z" fill="#F0F0F0"/>
<path d="M75.4033 139.156L215.663 139.156V121.143L75.4033 121.143V139.156Z" fill="#E6E6E6"/>
<path d="M63.9914 139.156L206.532 139.156V121.143L63.9914 121.143V139.156Z" fill="#F0F0F0"/>
<path d="M207.672 115.172V35.3662L77.1136 35.3662V115.172L207.672 115.172Z" fill="#FAFAFA"/>
<path d="M178.232 115.161L161.557 35.3662H135.537L152.211 115.161H178.232Z" fill="white"/>
<path d="M204.893 109.202C205.006 109.202 205.115 109.157 205.195 109.077C205.275 108.996 205.32 108.888 205.32 108.774V39.2524C205.32 39.1963 205.309 39.1407 205.288 39.0889C205.266 39.0371 205.235 38.99 205.195 38.9503C205.156 38.9107 205.108 38.8792 205.057 38.8577C205.005 38.8362 204.949 38.8252 204.893 38.8252C204.779 38.8252 204.671 38.8702 204.591 38.9503C204.51 39.0304 204.465 39.1391 204.465 39.2524V108.774C204.465 108.888 204.51 108.996 204.591 109.077C204.671 109.157 204.779 109.202 204.893 109.202Z" fill="#F0F0F0"/>
<path d="M146.623 115.161L129.948 35.3662H119.798L136.473 115.161H146.623Z" fill="white"/>
<path d="M77.877 115.172V35.3662H77.1135V115.172H77.877Z" fill="#E6E6E6"/>
<path opacity="0.6" d="M69.7024 44.3886H209.962L210.512 37.6855H70.2521L69.7024 44.3886Z" fill="#EBEBEB"/>
<path opacity="0.6" d="M69.7024 48.1616H209.962L210.512 41.4688H70.2521L69.7024 48.1616Z" fill="#EBEBEB"/>
<path opacity="0.6" d="M69.7024 51.9462H209.962L210.512 45.2432H70.2521L69.7024 51.9462Z" fill="#EBEBEB"/>
<path opacity="0.6" d="M69.7024 55.7192H209.962L210.512 49.0264H70.2521L69.7024 55.7192Z" fill="#EBEBEB"/>
<path opacity="0.6" d="M69.7024 59.5038H209.962L210.512 52.8008H70.2521L69.7024 59.5038Z" fill="#EBEBEB"/>
<path opacity="0.6" d="M69.7024 63.286H209.962L210.512 56.583H70.2521L69.7024 63.286Z" fill="#EBEBEB"/>
<path d="M97.7486 222.054H102.594V168.053H97.7486V222.054Z" fill="#F5F5F5"/>
<path d="M98.3591 222.023H99.7334V168.023H98.3591V222.023Z" fill="#FAFAFA"/>
<path d="M100.303 222.023H100.843V168.023H100.303V222.023Z" fill="#FAFAFA"/>
<path d="M118.119 225.359H82.2443C82.2443 224.162 82.7205 223.013 83.5682 222.166C84.4158 221.319 85.5655 220.843 86.7643 220.843H113.589C114.787 220.843 115.937 221.319 116.785 222.166C117.632 223.013 118.108 224.162 118.108 225.359H118.119Z" fill="#F0F0F0"/>
<path d="M91.4571 201.589C91.8261 201.586 92.1793 201.439 92.4403 201.178C92.7013 200.917 92.8491 200.564 92.8517 200.195V164.778C92.8517 164.409 92.7048 164.054 92.4433 163.793C92.1817 163.532 91.827 163.385 91.4571 163.385C91.2731 163.383 91.0906 163.419 90.9202 163.488C90.7499 163.557 90.5949 163.66 90.4643 163.789C90.3337 163.919 90.2301 164.073 90.1594 164.243C90.0886 164.412 90.0522 164.594 90.0522 164.778V200.185C90.0522 200.557 90.2003 200.915 90.4637 201.178C90.7272 201.441 91.0845 201.589 91.4571 201.589Z" fill="#F0F0F0"/>
<path d="M78.4573 180.9H121.875L116.877 150.589H83.4557L78.4573 180.9Z" fill="#E0E0E0"/>
<path d="M254.5 379C363.51 379 451.88 373.845 451.88 367.486C451.88 361.127 363.51 355.972 254.5 355.972C145.49 355.972 57.1201 361.127 57.1201 367.486C57.1201 373.845 145.49 379 254.5 379Z" fill="#F5F5F5"/>
<path d="M105.995 149.938L104.98 150.011L106.332 168.769L107.347 168.696L105.995 149.938Z" fill="#407BFF"/>
<path d="M108.037 178.38L107.022 178.453L107.531 185.514L108.546 185.441L108.037 178.38Z" fill="#407BFF"/>
<path d="M343.789 264.671H125.774C123.347 264.628 121.022 263.688 119.248 262.033C117.473 260.379 116.375 258.126 116.164 255.71L105.454 107.075C105.355 105.928 105.497 104.774 105.871 103.686C106.245 102.597 106.843 101.6 107.626 100.756C108.41 99.9131 109.362 99.2432 110.42 98.7897C111.478 98.3363 112.62 98.1094 113.772 98.1237H331.786C334.212 98.167 336.535 99.1053 338.309 100.758C340.083 102.41 341.183 104.66 341.396 107.075L352.106 255.71C352.205 256.857 352.063 258.012 351.689 259.101C351.315 260.19 350.718 261.188 349.934 262.032C349.151 262.876 348.199 263.547 347.141 264.001C346.083 264.456 344.941 264.684 343.789 264.671Z" fill="#9495BE"/>
<path d="M344.624 264.671H126.609C124.182 264.628 121.857 263.688 120.083 262.033C118.308 260.379 117.21 258.126 116.999 255.71L106.289 107.075C106.19 105.928 106.332 104.774 106.706 103.686C107.08 102.597 107.678 101.6 108.461 100.756C109.245 99.9131 110.197 99.2432 111.255 98.7897C112.313 98.3363 113.455 98.1094 114.607 98.1237H332.621C335.047 98.167 337.37 99.1053 339.144 100.758C340.918 102.41 342.018 104.66 342.231 107.075L352.941 255.71C353.042 256.857 352.901 258.013 352.528 259.102C352.154 260.192 351.556 261.191 350.773 262.035C349.989 262.88 349.037 263.551 347.978 264.005C346.919 264.459 345.776 264.686 344.624 264.671Z" fill="#9495BE"/>
<path d="M332.947 102.599H114.932C114.688 102.599 114.443 102.599 114.199 102.599C108.631 103.056 109.771 111.529 115.39 111.529H333.772C339.401 111.529 339.32 103.056 333.68 102.599C333.436 102.599 333.191 102.599 332.947 102.599Z" fill="#2F318B"/>
<path d="M120.612 107.074C120.634 107.337 120.6 107.6 120.513 107.849C120.426 108.097 120.288 108.324 120.108 108.516C119.927 108.708 119.709 108.86 119.466 108.962C119.223 109.064 118.962 109.114 118.699 109.109C118.145 109.101 117.615 108.889 117.209 108.513C116.802 108.138 116.55 107.625 116.5 107.074C116.48 106.813 116.515 106.551 116.602 106.304C116.689 106.057 116.826 105.831 117.005 105.64C117.184 105.449 117.4 105.297 117.641 105.193C117.882 105.09 118.141 105.038 118.403 105.04C118.958 105.048 119.49 105.259 119.898 105.635C120.305 106.01 120.56 106.523 120.612 107.074Z" fill="#FAFAFA"/>
<path d="M127.606 107.074C127.628 107.337 127.594 107.6 127.507 107.849C127.42 108.097 127.282 108.324 127.101 108.516C126.921 108.708 126.702 108.86 126.46 108.962C126.217 109.064 125.956 109.114 125.692 109.109C125.139 109.101 124.608 108.889 124.202 108.513C123.796 108.138 123.544 107.625 123.493 107.074C123.474 106.813 123.508 106.551 123.595 106.304C123.682 106.057 123.82 105.831 123.998 105.64C124.177 105.449 124.394 105.297 124.635 105.193C124.876 105.09 125.135 105.038 125.397 105.04C125.951 105.048 126.484 105.259 126.891 105.635C127.299 106.01 127.554 106.523 127.606 107.074Z" fill="#FAFAFA"/>
<path d="M134.59 107.075C134.611 107.336 134.578 107.599 134.491 107.846C134.405 108.094 134.268 108.321 134.089 108.512C133.909 108.704 133.692 108.856 133.45 108.959C133.209 109.061 132.949 109.113 132.686 109.109C132.132 109.103 131.6 108.892 131.194 108.516C130.787 108.14 130.535 107.626 130.487 107.075C130.466 106.813 130.5 106.55 130.586 106.303C130.672 106.055 130.81 105.828 130.989 105.637C131.168 105.445 131.385 105.293 131.627 105.19C131.868 105.088 132.129 105.037 132.391 105.04C132.944 105.05 133.473 105.263 133.879 105.638C134.284 106.014 134.538 106.525 134.59 107.075Z" fill="#FAFAFA"/>
<path d="M338.841 249.831H130.304C129.425 249.817 128.582 249.477 127.939 248.877C127.296 248.278 126.898 247.462 126.822 246.586L118.017 124.356C117.978 123.936 118.028 123.513 118.165 123.115C118.302 122.716 118.522 122.352 118.811 122.045C119.1 121.738 119.451 121.496 119.84 121.335C120.23 121.174 120.649 121.098 121.071 121.111H329.659C330.539 121.123 331.383 121.462 332.027 122.062C332.67 122.662 333.067 123.479 333.141 124.356L341.956 246.586C341.993 247.01 341.939 247.437 341.797 247.839C341.655 248.24 341.429 248.606 341.134 248.914C340.84 249.221 340.482 249.461 340.087 249.62C339.692 249.778 339.267 249.85 338.841 249.831Z" fill="white"/>
<path d="M250.968 203.276L247.567 156.162L237.286 149.968H208.975L212.823 203.276H250.968Z" fill="white"/>
<path d="M250.968 203.765H212.823C212.698 203.765 212.577 203.718 212.484 203.633C212.392 203.549 212.335 203.432 212.324 203.307L208.486 150.008C208.482 149.94 208.491 149.871 208.514 149.807C208.537 149.742 208.572 149.683 208.619 149.632C208.664 149.583 208.719 149.544 208.781 149.518C208.842 149.492 208.908 149.479 208.975 149.48H237.286C237.376 149.478 237.464 149.503 237.54 149.551L247.822 155.735C247.892 155.774 247.951 155.83 247.993 155.897C248.036 155.965 248.061 156.042 248.066 156.122L251.446 203.236C251.452 203.304 251.444 203.373 251.421 203.438C251.398 203.503 251.362 203.563 251.314 203.612C251.222 203.705 251.098 203.759 250.968 203.765ZM213.302 202.748H250.428L247.089 156.417L237.194 150.466H209.504L213.302 202.748Z" fill="#282A7D"/>
<path d="M247.567 156.162L237.286 149.968L241.062 158.166L247.567 156.162Z" fill="#EBEBEB"/>
<path d="M241.062 158.674C240.967 158.674 240.874 158.646 240.794 158.594C240.715 158.541 240.652 158.467 240.615 158.379L236.838 150.242C236.789 150.146 236.773 150.037 236.793 149.931C236.812 149.826 236.866 149.729 236.946 149.657C237.027 149.585 237.128 149.542 237.236 149.534C237.343 149.525 237.45 149.553 237.54 149.612L247.822 155.796C247.905 155.846 247.972 155.918 248.015 156.004C248.059 156.091 248.076 156.188 248.066 156.284C248.051 156.377 248.011 156.464 247.95 156.535C247.889 156.607 247.809 156.661 247.72 156.691L241.205 158.725L241.062 158.674ZM238.405 151.229L241.327 157.576L246.417 156.02L238.405 151.229Z" fill="#282A7D"/>
<path d="M224.978 173.983C224.995 174.26 224.954 174.538 224.86 174.799C224.765 175.06 224.617 175.299 224.427 175.501C224.236 175.703 224.006 175.864 223.75 175.973C223.495 176.083 223.22 176.14 222.942 176.139C222.359 176.128 221.801 175.902 221.376 175.504C220.951 175.105 220.689 174.563 220.641 173.983C220.615 173.704 220.649 173.423 220.74 173.158C220.831 172.893 220.978 172.651 221.171 172.448C221.364 172.244 221.598 172.085 221.858 171.979C222.118 171.874 222.397 171.825 222.677 171.837C223.258 171.847 223.815 172.072 224.24 172.468C224.665 172.865 224.928 173.404 224.978 173.983Z" fill="#282A7D"/>
<path d="M238.925 173.982C238.951 174.262 238.917 174.543 238.826 174.809C238.734 175.074 238.588 175.317 238.395 175.521C238.202 175.725 237.968 175.885 237.708 175.992C237.449 176.099 237.169 176.149 236.889 176.139C236.305 176.128 235.746 175.902 235.319 175.504C234.892 175.106 234.628 174.564 234.578 173.982C234.553 173.704 234.588 173.423 234.68 173.159C234.772 172.895 234.919 172.654 235.112 172.451C235.304 172.248 235.538 172.088 235.797 171.982C236.056 171.876 236.334 171.826 236.614 171.836C237.197 171.842 237.758 172.065 238.185 172.462C238.613 172.859 238.876 173.401 238.925 173.982Z" fill="#282A7D"/>
<path d="M242.874 187.948C242.75 187.948 242.63 187.901 242.539 187.816C242.448 187.731 242.394 187.614 242.386 187.49C242.131 184.032 236.695 181.214 230.272 181.214C226.006 181.214 222.178 182.475 220.285 184.52C219.897 184.894 219.593 185.345 219.393 185.845C219.193 186.345 219.102 186.881 219.124 187.419C219.129 187.486 219.121 187.553 219.099 187.616C219.078 187.68 219.045 187.738 219.001 187.789C218.912 187.891 218.786 187.954 218.651 187.963C218.516 187.972 218.383 187.928 218.281 187.839C218.179 187.75 218.116 187.625 218.106 187.49C218.077 186.817 218.188 186.146 218.434 185.519C218.679 184.892 219.053 184.323 219.532 183.849C221.568 181.611 225.711 180.228 230.241 180.228C237.296 180.228 243.047 183.391 243.332 187.419C243.338 187.484 243.331 187.549 243.31 187.611C243.29 187.673 243.258 187.73 243.215 187.78C243.172 187.829 243.12 187.869 243.062 187.898C243.003 187.927 242.94 187.944 242.874 187.948Z" fill="#282A7D"/>
<path d="M217.007 169.619C216.945 169.62 216.884 169.609 216.826 169.586C216.768 169.563 216.716 169.529 216.671 169.486C216.626 169.441 216.59 169.387 216.565 169.328C216.54 169.268 216.528 169.205 216.528 169.14C216.528 169.076 216.54 169.013 216.565 168.953C216.59 168.894 216.626 168.84 216.671 168.795L218.84 166.465C218.884 166.419 218.938 166.381 218.998 166.356C219.057 166.33 219.121 166.317 219.186 166.317C219.25 166.317 219.315 166.33 219.374 166.356C219.434 166.381 219.487 166.419 219.532 166.465C219.577 166.511 219.614 166.565 219.638 166.624C219.663 166.683 219.676 166.747 219.676 166.811C219.676 166.875 219.663 166.939 219.638 166.998C219.614 167.058 219.577 167.112 219.532 167.157L217.364 169.486C217.316 169.532 217.26 169.567 217.199 169.589C217.138 169.612 217.073 169.622 217.007 169.619Z" fill="#282A7D"/>
<path d="M241.857 169.619C241.732 169.617 241.613 169.57 241.521 169.486L239.027 167.167C238.979 167.122 238.942 167.067 238.916 167.007C238.891 166.947 238.878 166.882 238.878 166.816C238.878 166.751 238.891 166.686 238.916 166.626C238.942 166.565 238.979 166.511 239.027 166.465C239.071 166.419 239.125 166.381 239.184 166.356C239.244 166.33 239.308 166.317 239.373 166.317C239.437 166.317 239.501 166.33 239.561 166.356C239.62 166.381 239.674 166.419 239.719 166.465L242.213 168.795C242.258 168.84 242.295 168.894 242.319 168.953C242.344 169.013 242.357 169.076 242.357 169.14C242.357 169.205 242.344 169.268 242.319 169.328C242.295 169.387 242.258 169.441 242.213 169.486C242.115 169.574 241.988 169.621 241.857 169.619Z" fill="#282A7D"/>
<path d="M205.901 213.805H208.201L211.52 218.209L211.204 213.805H213.525L214.096 221.769H211.744L208.446 217.395L208.761 221.769H206.44L205.901 213.805Z" fill="#282A7D"/>
<path d="M215.134 217.791C215.055 217.249 215.092 216.697 215.243 216.171C215.394 215.645 215.655 215.157 216.01 214.74C216.395 214.357 216.858 214.062 217.367 213.875C217.877 213.687 218.42 213.611 218.962 213.651C220.109 213.589 221.236 213.972 222.107 214.719C222.906 215.514 223.369 216.584 223.4 217.71C223.483 218.486 223.378 219.271 223.095 219.998C222.831 220.584 222.39 221.072 221.833 221.392C221.162 221.745 220.411 221.917 219.654 221.89C218.874 221.917 218.098 221.767 217.384 221.453C216.757 221.155 216.227 220.686 215.857 220.1C215.42 219.406 215.171 218.61 215.134 217.791ZM217.608 217.791C217.599 218.418 217.799 219.03 218.178 219.53C218.339 219.703 218.534 219.84 218.752 219.931C218.97 220.022 219.204 220.066 219.44 220.059C219.666 220.075 219.892 220.036 220.099 219.946C220.307 219.855 220.489 219.716 220.631 219.541C220.938 218.968 221.035 218.306 220.906 217.669C220.91 217.071 220.709 216.489 220.336 216.021C220.173 215.849 219.975 215.714 219.756 215.625C219.536 215.536 219.3 215.494 219.064 215.502C218.842 215.493 218.621 215.536 218.42 215.628C218.218 215.72 218.041 215.858 217.903 216.031C217.591 216.565 217.486 217.195 217.608 217.801V217.791Z" fill="#282A7D"/>
<path d="M228.185 213.804H231.849C232.453 213.785 233.055 213.885 233.621 214.099C234.068 214.286 234.465 214.575 234.781 214.943C235.102 215.317 235.347 215.748 235.504 216.215C235.669 216.716 235.772 217.235 235.809 217.761C235.888 218.426 235.836 219.099 235.657 219.744C235.516 220.191 235.268 220.596 234.934 220.924C234.655 221.219 234.304 221.436 233.916 221.555C233.442 221.689 232.953 221.761 232.46 221.768H228.806L228.185 213.804ZM230.78 215.635L231.096 219.988H231.697C232.067 220.015 232.439 219.959 232.786 219.826C233.009 219.688 233.175 219.475 233.254 219.225C233.37 218.774 233.398 218.304 233.336 217.842C233.353 217.219 233.163 216.607 232.796 216.103C232.606 215.934 232.383 215.806 232.142 215.725C231.9 215.645 231.645 215.614 231.391 215.635H230.78Z" fill="#282A7D"/>
<path d="M241.724 220.457H238.924L238.629 221.769H236.115L238.538 213.805H241.266L244.839 221.769H242.253L241.724 220.457ZM241.083 218.738L240.003 215.869L239.332 218.738H241.083Z" fill="#282A7D"/>
<path d="M243.679 213.805H251.171L251.314 215.768H248.799L249.227 221.769H246.763L246.336 215.768H243.821L243.679 213.805Z" fill="#282A7D"/>
<path d="M256.913 220.457H254.113L253.818 221.769H251.303L253.726 213.805H256.414L259.977 221.769H257.401L256.913 220.457ZM256.271 218.738L255.182 215.869L254.52 218.738H256.271Z" fill="#282A7D"/>
<path d="M360.056 120.156C360.962 119.698 362.092 119.139 363.049 118.559C364.006 117.979 365.085 117.409 366.103 116.809C368.088 115.579 370.104 114.368 372.008 113.015C375.833 110.408 379.418 107.464 382.717 104.217C383.134 103.831 383.501 103.393 383.898 102.986L384.478 102.366L384.763 102.051L384.906 101.898C384.763 102.173 384.906 102.091 384.906 101.827C384.995 101.464 385.046 101.092 385.058 100.718C385.036 98.5553 384.786 96.4008 384.315 94.2897C383.409 89.7227 382.035 85.0337 380.681 80.4362L384.631 78.707C387.127 83.1236 389.209 87.7612 390.851 92.5606C391.776 95.1498 392.364 97.8469 392.602 100.586C392.664 101.437 392.636 102.293 392.52 103.139C392.369 104.332 391.944 105.474 391.278 106.475L391.105 106.709L390.973 106.882L390.82 107.075L390.505 107.452L389.874 108.214C389.456 108.723 389.049 109.232 388.601 109.72C385.119 113.558 381.235 117.012 377.016 120.024C374.98 121.539 372.822 122.983 370.613 124.285C369.527 124.964 368.418 125.604 367.284 126.208C366.134 126.838 365.055 127.398 363.752 127.998L360.056 120.156Z" fill="#FFB573"/>
<path d="M350.996 359.287C351.759 359.268 352.516 359.166 353.256 358.982C353.294 358.971 353.328 358.95 353.354 358.921C353.381 358.892 353.4 358.857 353.409 358.819C353.414 358.78 353.408 358.74 353.392 358.705C353.376 358.669 353.35 358.638 353.317 358.616C353.022 358.423 350.436 356.754 349.439 357.202C349.328 357.254 349.233 357.333 349.164 357.433C349.094 357.533 349.052 357.65 349.042 357.772C349.003 357.963 349.013 358.162 349.072 358.349C349.131 358.535 349.236 358.704 349.378 358.84C349.848 359.174 350.421 359.333 350.996 359.287ZM352.676 358.687C351.2 358.982 350.08 358.931 349.622 358.545C349.53 358.451 349.464 358.336 349.428 358.209C349.392 358.083 349.389 357.95 349.418 357.822C349.418 357.649 349.52 357.599 349.591 357.568C350.131 357.334 351.627 358.036 352.676 358.687Z" fill="#263238"/>
<path d="M353.246 358.982C353.299 358.98 353.35 358.957 353.387 358.92C353.425 358.882 353.447 358.832 353.45 358.779C353.45 358.677 353.45 356.226 352.513 355.402C352.398 355.298 352.262 355.221 352.114 355.176C351.967 355.13 351.811 355.117 351.658 355.137C351.497 355.139 351.342 355.195 351.218 355.297C351.094 355.398 351.008 355.54 350.976 355.697C350.782 356.653 352.33 358.494 353.144 358.962L353.246 358.982ZM351.79 355.534C351.873 355.532 351.955 355.546 352.032 355.575C352.108 355.605 352.179 355.65 352.238 355.707C352.776 356.497 353.054 357.436 353.032 358.392C352.218 357.741 351.251 356.358 351.373 355.778C351.373 355.676 351.444 355.564 351.699 355.534H351.79Z" fill="#263238"/>
<path d="M352.452 94.707C351.434 99.7928 349.398 109.964 352.91 113.382C352.91 113.382 351.526 118.468 342.129 118.468C331.787 118.468 337.192 113.382 337.192 113.382C342.832 112.039 342.679 107.849 341.702 103.922L352.452 94.707Z" fill="#FFB573"/>
<path d="M335.207 115.416C333.588 115.64 334.973 111.439 335.624 111.002C337.151 109.985 356.86 108.571 356.727 111.002C356.646 112.019 356.157 114.053 355.302 114.714C354.447 115.375 349.377 113.3 335.207 115.416Z" fill="#0B0B0B"/>
<path d="M338.424 114.002C337.131 114.439 337.253 110.208 337.691 109.699C338.709 108.52 354.661 104.421 355.129 106.74C355.313 107.757 355.404 109.791 354.854 110.513C354.305 111.235 349.622 110.005 338.424 114.002Z" fill="#0B0B0B"/>
<path d="M332.489 85.6036C332.425 85.6041 332.362 85.5908 332.304 85.5644C332.246 85.5381 332.194 85.4994 332.153 85.451C331.842 85.0508 331.442 84.729 330.984 84.5117C330.526 84.2944 330.023 84.1876 329.516 84.1999C329.463 84.207 329.409 84.2033 329.358 84.1891C329.306 84.1749 329.258 84.1505 329.216 84.1172C329.175 84.084 329.14 84.0426 329.115 83.9957C329.089 83.9487 329.073 83.8971 329.068 83.8439C329.059 83.738 329.091 83.6327 329.158 83.5495C329.224 83.4664 329.319 83.4116 329.425 83.3964C330.065 83.3725 330.703 83.5 331.285 83.7687C331.867 84.0373 332.377 84.4395 332.774 84.9425C332.842 85.025 332.875 85.1311 332.865 85.2377C332.856 85.3443 332.805 85.4429 332.723 85.5121C332.654 85.5617 332.573 85.5931 332.489 85.6036Z" fill="#263238"/>
<path d="M330.514 90.5762C330.052 92.1989 329.367 93.7496 328.478 95.1839C328.851 95.3983 329.267 95.5286 329.696 95.5655C330.125 95.6024 330.557 95.545 330.962 95.3975L330.514 90.5762Z" fill="#FF5652"/>
<path d="M331.013 89.3368C331.084 90.0284 330.768 90.6184 330.32 90.659C329.872 90.6997 329.455 90.181 329.394 89.4995C329.333 88.818 329.638 88.2281 330.076 88.1772C330.514 88.1264 330.941 88.6553 331.013 89.3368Z" fill="#263238"/>
<path d="M330.28 88.197L328.59 87.8916C328.59 87.8916 329.557 89.0928 330.28 88.197Z" fill="#263238"/>
<path d="M363.12 358.779H354.59L355.261 339.046H363.792L363.12 358.779Z" fill="#FFB573"/>
<path d="M353.918 357.792H363.497C363.663 357.791 363.824 357.85 363.95 357.958C364.075 358.067 364.157 358.218 364.179 358.382L365.268 365.95C365.288 366.141 365.268 366.334 365.209 366.516C365.149 366.699 365.052 366.867 364.923 367.01C364.795 367.153 364.638 367.267 364.462 367.346C364.287 367.424 364.097 367.465 363.904 367.465C360.565 367.404 358.957 367.211 354.742 367.211C352.146 367.211 348.359 367.485 344.786 367.485C341.213 367.485 341.01 363.946 342.506 363.62C349.184 362.186 350.243 360.213 352.493 358.321C352.89 357.982 353.395 357.794 353.918 357.792Z" fill="#263238"/>
<g opacity="0.2">
<path d="M363.792 339.056H355.261L354.915 349.227H363.446L363.792 339.056Z" fill="black"/>
</g>
<path d="M329.191 125.201C323.917 123.167 318.888 120.899 313.87 118.335C308.718 115.817 303.811 112.827 299.211 109.405C297.977 108.449 296.813 107.405 295.729 106.282C295.444 105.977 295.159 105.702 294.884 105.346C294.561 104.983 294.262 104.599 293.988 104.197C293.239 103.103 292.77 101.842 292.624 100.525C292.512 99.2759 292.682 98.0174 293.123 96.843C293.478 95.8969 293.961 95.0037 294.558 94.1882C295.547 92.8492 296.707 91.6455 298.009 90.6079C300.313 88.7722 302.804 87.1835 305.441 85.868C306.703 85.1967 307.986 84.5965 309.289 84.0371C310.592 83.4777 311.874 82.9488 313.269 82.4707L315.071 86.3867C310.633 89.1839 306.031 92.2557 302.651 95.7038C301.895 96.4696 301.229 97.3193 300.666 98.2365C300.178 99.04 300.188 99.6402 300.269 99.5893C300.351 99.5384 300.269 99.5893 300.412 99.691L300.819 100.128C300.995 100.322 301.182 100.505 301.379 100.678C302.238 101.477 303.153 102.215 304.117 102.885C306.221 104.368 308.41 105.726 310.673 106.953C312.964 108.225 315.325 109.445 317.728 110.605C322.533 112.894 327.501 115.111 332.377 117.125L329.191 125.201Z" fill="#FFB573"/>
<path d="M317.616 83.6095L319.021 80.558L312.587 78.3203C312.587 78.3203 310.551 84.3215 312.964 87.0983C313.967 86.9447 314.916 86.5459 315.728 85.9372C316.54 85.3286 317.188 84.529 317.616 83.6095Z" fill="#FFB573"/>
<path d="M318.99 73.9465L313.87 72.4717L312.587 78.3305L318.99 80.558V73.9465Z" fill="#FFB573"/>
<path d="M385.16 80.8534L385.903 73.7334L379.307 75.2693C379.307 75.2693 379.205 81.9621 382.697 83.0301L385.16 80.8534Z" fill="#FFB573"/>
<path d="M382.727 68.708L378.421 70.722L379.307 75.2584L385.903 73.7124L382.727 68.708Z" fill="#FFB573"/>
<path d="M353.796 84.7283C354.111 93.1808 354.417 96.751 350.599 101.481C344.847 108.601 334.392 107.126 331.562 98.9378C329.017 91.5635 328.936 78.9916 336.836 74.8314C338.573 73.9084 340.518 73.4445 342.485 73.4837C344.453 73.523 346.378 74.0641 348.077 75.0557C349.776 76.0473 351.194 77.4565 352.194 79.1494C353.195 80.8423 353.746 82.7627 353.796 84.7283Z" fill="#FFB573"/>
<path d="M350.111 101.46C358.417 97.8801 363.874 90.2718 361.573 78.5034C359.354 67.1927 351.729 66.1146 348.573 68.4235C345.418 70.7324 337.548 67.2741 332.825 71.2003C324.681 78.0762 332.377 85.4404 336.408 89.8853C338.811 94.8693 341.967 104.98 350.111 101.46Z" fill="#0B0B0B"/>
<path d="M346.659 76.469C347.672 77.7694 349.043 78.7449 350.604 79.2751C352.166 79.8053 353.848 79.8669 355.444 79.4524C357.04 79.0379 358.479 78.1654 359.584 76.9426C360.689 75.7199 361.411 74.2005 361.662 72.5721C361.912 70.9438 361.68 69.2778 360.993 67.78C360.306 66.2821 359.196 65.0181 357.798 64.144C356.4 63.27 354.777 62.8241 353.129 62.8616C351.48 62.899 349.879 63.4181 348.522 64.3548C346.672 65.7177 345.437 67.7574 345.088 70.0277C344.739 72.2979 345.304 74.6139 346.659 76.469Z" fill="#90C42F"/>
<path d="M348.818 69.2168C347.627 62.402 354.071 57.1535 362.703 59.6862C371.336 62.2189 366.775 69.8576 364.994 75.9605C363.212 82.0634 367.875 87.8815 369.809 83.2331C371.743 78.5848 368.486 77.1303 368.486 77.1303C368.486 77.1303 377.648 79.5002 369.137 89.8141C360.627 100.128 352.92 88.7969 355.007 82.0227C356.697 76.6115 349.948 75.6554 348.818 69.2168Z" fill="#0B0B0B"/>
<path d="M340.195 71.7901C336.256 69.7558 329.588 68.0775 325.791 74.455C323.999 77.5064 324.691 81.575 324.691 81.575L336.286 82.348L340.195 71.7901Z" fill="#0B0B0B"/>
<path d="M323.327 79.5609C323.293 79.561 323.26 79.5541 323.228 79.5406C323.197 79.5271 323.17 79.5072 323.147 79.4824C323.124 79.4575 323.106 79.4281 323.095 79.3961C323.084 79.3641 323.08 79.3302 323.083 79.2964C323.083 79.1235 323.378 75.0346 325.852 72.4612C331.827 66.2566 338.831 71.4441 340.826 73.1325C340.869 73.1779 340.894 73.2375 340.896 73.2999C340.898 73.3624 340.876 73.4233 340.836 73.471C340.796 73.5188 340.739 73.5501 340.678 73.559C340.616 73.5678 340.553 73.5536 340.501 73.519C338.577 71.8611 331.878 66.9381 326.249 72.8172C323.907 75.2482 323.622 79.2863 323.622 79.327C323.62 79.3623 323.61 79.3968 323.594 79.4282C323.577 79.4596 323.554 79.4872 323.526 79.5092C323.499 79.5312 323.466 79.5472 323.432 79.5561C323.398 79.565 323.362 79.5666 323.327 79.5609Z" fill="#263238"/>
<path d="M337.823 89.5902C337.775 91.1901 337.183 92.7259 336.143 93.9436C334.738 95.5812 333.089 94.7777 332.753 92.9265C332.417 91.2787 332.753 88.451 334.525 87.4542C336.296 86.4574 337.843 87.7085 337.823 89.5902Z" fill="#FFB573"/>
<path d="M335.991 166.985C335.991 166.985 336.541 226.122 341.671 259.078C345.825 285.697 353.49 347.254 353.49 347.254H365.126C365.126 347.254 366.256 287.833 364.108 261.499C358.784 194.886 372.537 182.426 361.441 166.985H335.991Z" fill="#3D3F8A"/>
<path opacity="0.3" d="M342.109 193.817C346.181 211.668 342.933 239.782 340.704 252.161C338.342 233.364 337.151 209.003 336.561 191.132C338.668 187.735 340.663 187.511 342.109 193.817Z" fill="black"/>
<path d="M351.902 347.487H366.714L367.488 342.29L351.821 341.761L351.902 347.487Z" fill="#282A7D"/>
<path d="M356.127 117.064C357.521 114.297 365.014 112.558 369.106 112.558L372.16 126.157C372.16 126.157 364.016 138.251 360.616 136.969C356.615 135.454 353.144 122.994 356.127 117.064Z" fill="#0B0B0B"/>
<path opacity="0.4" d="M356.127 117.064C357.521 114.297 365.014 112.558 369.106 112.558L372.16 126.157C372.16 126.157 364.016 138.251 360.616 136.969C356.615 135.454 353.144 122.994 356.127 117.064Z" fill="#0B0B0B"/>
<path d="M347.494 344.163C347.512 344.132 347.521 344.097 347.521 344.061C347.521 344.025 347.512 343.99 347.494 343.959C347.472 343.923 347.441 343.894 347.403 343.876C347.365 343.858 347.322 343.852 347.28 343.858C346.853 343.919 343.086 344.519 342.577 345.597C342.523 345.693 342.494 345.802 342.494 345.912C342.494 346.023 342.523 346.131 342.577 346.228C342.662 346.39 342.787 346.528 342.94 346.63C343.093 346.731 343.27 346.792 343.453 346.807C344.684 346.94 346.507 345.231 347.423 344.193L347.494 344.163ZM342.974 345.729C343.32 345.16 345.275 344.631 346.761 344.356C345.417 345.719 344.237 346.482 343.544 346.39C343.425 346.377 343.311 346.334 343.212 346.267C343.112 346.2 343.031 346.109 342.974 346.004C342.952 345.965 342.94 345.921 342.94 345.877C342.94 345.832 342.952 345.788 342.974 345.75C342.974 345.75 342.964 345.739 342.974 345.729Z" fill="#263238"/>
<path d="M347.494 344.162C347.511 344.133 347.52 344.1 347.52 344.066C347.52 344.032 347.511 343.999 347.494 343.969C347.433 343.888 345.926 342.159 344.532 342.067C344.331 342.048 344.128 342.071 343.936 342.136C343.745 342.201 343.57 342.306 343.422 342.444C343.273 342.535 343.163 342.677 343.112 342.844C343.062 343.011 343.074 343.19 343.147 343.349C343.585 344.224 346.293 344.518 347.382 344.295C347.41 344.284 347.435 344.266 347.455 344.243C347.474 344.22 347.488 344.192 347.494 344.162ZM343.514 342.881C343.558 342.812 343.613 342.75 343.677 342.698C343.783 342.597 343.91 342.52 344.049 342.473C344.187 342.425 344.335 342.408 344.481 342.423C345.425 342.657 346.275 343.175 346.914 343.908C345.702 344.01 343.748 343.644 343.483 343.125C343.466 343.085 343.46 343.042 343.465 342.999C343.471 342.956 343.487 342.915 343.514 342.881Z" fill="#263238"/>
<path d="M356.381 340.551L348.583 344.009L345.112 336.787L340.572 327.328L340.032 326.229L347.83 322.761L348.431 323.991L352.828 333.156L356.381 340.551Z" fill="#FFB573"/>
<path opacity="0.2" d="M352.829 333.157L345.112 336.788L340.572 327.328L348.431 323.992L352.829 333.157Z" fill="black"/>
<path d="M326.849 166.985C326.849 166.985 301.939 228.858 308.688 258C314.796 284.334 341.773 334.204 341.773 334.204L352.228 328.976C352.228 328.976 335.543 268.771 333.741 255.691C330.219 230.262 352.849 194.326 352.849 166.985H326.849Z" fill="#3D3F8A"/>
<path d="M347.199 342.931L354.936 337.296C355.068 337.197 355.232 337.15 355.397 337.163C355.562 337.176 355.716 337.249 355.832 337.367L361.176 342.85C361.306 342.993 361.404 343.161 361.464 343.345C361.524 343.528 361.544 343.722 361.524 343.914C361.504 344.106 361.443 344.292 361.347 344.459C361.25 344.626 361.119 344.771 360.962 344.884C358.224 346.796 356.809 347.589 353.409 350.061C351.312 351.587 347.138 354.954 344.247 357.059C341.356 359.165 339.157 356.418 340.175 355.279C344.735 350.193 345.692 347.04 346.405 344.192C346.515 343.693 346.796 343.247 347.199 342.931Z" fill="#263238"/>
<path d="M341.101 336.412L354.569 330.258L352.849 324.775L338.424 331.346L341.101 336.412Z" fill="#282A7D"/>
<path d="M333.456 116.371C332.346 113.482 322.614 110.268 317.728 109.251L315.58 125.241C315.58 125.241 323.561 136.694 327.053 135.737C331.186 134.629 335.858 122.555 333.456 116.371Z" fill="#0B0B0B"/>
<path opacity="0.4" d="M333.456 116.371C332.346 113.482 322.614 110.268 317.728 109.251L315.58 125.241C315.58 125.241 323.561 136.694 327.053 135.737C331.186 134.629 335.858 122.555 333.456 116.371Z" fill="#0B0B0B"/>
<path d="M322.777 115.558C322.777 115.558 318.705 116.992 326.849 166.985H361.461C360.881 152.897 360.86 144.221 367.569 115.314C362.719 114.314 357.803 113.668 352.859 113.381C347.626 113.004 342.374 113.004 337.141 113.381C330.432 113.992 322.777 115.558 322.777 115.558Z" fill="#121212"/>
<path opacity="0.4" d="M322.777 115.558C322.777 115.558 318.705 116.992 326.849 166.985H361.461C360.881 152.897 360.86 144.221 367.569 115.314C362.719 114.314 357.803 113.668 352.859 113.381C347.626 113.004 342.374 113.004 337.141 113.381C330.432 113.992 322.777 115.558 322.777 115.558Z" fill="black"/>
<path d="M362 164.951L363.558 168.053C363.68 168.287 363.395 168.531 362.998 168.531H326.676C326.36 168.531 326.106 168.379 326.085 168.186L325.77 165.134C325.77 164.92 326.024 164.737 326.36 164.737H361.39C361.501 164.716 361.617 164.724 361.724 164.762C361.831 164.799 361.927 164.864 362 164.951Z" fill="#1E1E1E"/>
<path opacity="0.3" d="M362 164.951L363.558 168.053C363.68 168.287 363.395 168.531 362.998 168.531H344.837H326.676C326.36 168.531 326.106 168.379 326.085 168.186L325.77 165.134C325.77 164.92 326.024 164.737 326.36 164.737H361.39C361.501 164.716 361.617 164.724 361.724 164.762C361.831 164.799 361.927 164.864 362 164.951Z" fill="#1E1E1E"/>
<path d="M357.318 168.846H358.254C358.448 168.846 358.59 168.755 358.57 168.633L358.132 164.615C358.132 164.493 357.959 164.401 357.776 164.401H356.829C356.646 164.401 356.503 164.493 356.513 164.615L356.951 168.633C356.941 168.775 357.104 168.846 357.318 168.846Z" fill="#263238"/>
<path d="M334.525 168.846H335.462C335.645 168.846 335.787 168.755 335.777 168.633L335.339 164.615C335.339 164.493 335.166 164.401 334.973 164.401H334.036C333.843 164.401 333.711 164.493 333.721 164.615L334.158 168.633C334.169 168.775 334.332 168.846 334.525 168.846Z" fill="#263238"/>
</svg>
